<svg width="65" height="65" viewBox="0 0 65 65" fill="none" xmlns="http://www.w3.org/2000/svg">
<g clip-path="url(#clip0_114_266)">
<path d="M0 56.6188C0 61.248 3.75248 65 8.38119 65H56.6186C61.248 65 65 61.2475 65 56.6188V8.38144C65 3.75197 61.2475 0 56.6188 0H8.38144C3.75197 0 0 3.75248 0 8.38119V56.6186V56.6188Z" fill="#563D7C"/>
<path d="M26.9542 28.7518V19.547H35.0566C35.8285 19.547 36.5724 19.6112 37.2889 19.7399C38.0054 19.8684 38.6395 20.0979 39.1907 20.4288C39.7417 20.7596 40.1827 21.2189 40.5135 21.8067C40.8441 22.3948 41.0097 23.1481 41.0097 24.0665C41.0097 25.7202 40.5135 26.9146 39.5213 27.6494C38.5293 28.3844 37.2615 28.7518 35.718 28.7518H26.9542ZM18.3003 12.8223V52.1777H37.3717C39.1356 52.1777 40.8535 51.9573 42.5255 51.5163C44.1975 51.0753 45.6856 50.3956 46.9902 49.4769C48.2945 48.5583 49.3327 47.3731 50.1043 45.9217C50.8762 44.4702 51.2619 42.7522 51.2619 40.768C51.2619 38.3058 50.6647 36.2022 49.4706 34.4569C48.2762 32.7113 46.4664 31.4895 44.0411 30.7912C45.8049 29.9462 47.1372 28.862 48.0375 27.5392C48.9376 26.2163 49.3878 24.5629 49.3878 22.5784C49.3878 20.7411 49.0846 19.1979 48.4783 17.9484C47.872 16.6992 47.0176 15.6978 45.9151 14.9444C44.8129 14.1911 43.4901 13.649 41.9466 13.3184C40.4033 12.9876 38.6946 12.8223 36.8205 12.8223H18.3003ZM26.9542 45.453V34.6496H36.3794C38.2535 34.6496 39.7602 35.0812 40.8995 35.945C42.0385 36.8085 42.6083 38.2507 42.6083 40.2718C42.6083 41.3009 42.4336 42.1459 42.0845 42.8073C41.7353 43.4688 41.2669 43.9926 40.6788 44.3782C40.091 44.7642 39.4111 45.0397 38.6395 45.2052C37.8676 45.3703 37.0594 45.453 36.2141 45.453H26.9542Z" fill="white"/>
</g>
<defs>
<clipPath id="clip0_114_266">
<rect width="65" height="65" fill="white"/>
</clipPath>
</defs>
</svg>
