<svg width="65" height="65" viewBox="0 0 65 65" fill="none" xmlns="http://www.w3.org/2000/svg">
<path d="M11.9885 55.252L7.42627 4.0625H57.5738L53.0055 55.2439L32.4695 60.9375L11.9885 55.252Z" fill="#1572B6"/>
<path d="M32.5 56.5866L49.0953 51.9858L52.9994 8.2489H32.5V56.5866Z" fill="#33A9DC"/>
<path d="M32.5 26.7942H40.8078L41.3806 20.3653H32.5V14.0867H48.2422L48.0919 15.7706L46.5502 33.0728H32.5V26.7942Z" fill="white"/>
<path d="M32.5386 43.0991L32.5102 43.1072L25.5186 41.2181L25.0718 36.2111H18.7688L19.6483 46.0687L32.5082 49.6397L32.5386 49.6316V43.0991Z" fill="#EBEBEB"/>
<path d="M40.2737 32.8067L39.5181 41.214L32.5164 43.1031V49.6356L45.3864 46.0687L45.4818 45.0084L46.5726 32.8067H40.2737Z" fill="white"/>
<path d="M32.5224 14.0867V20.3653H17.3571L17.2312 18.9536L16.9447 15.7706L16.7944 14.0867H32.5224ZM32.5001 26.7942V33.0728H25.5958L25.4699 31.6611L25.1855 28.4781L25.0352 26.7942H32.5001Z" fill="#EBEBEB"/>
</svg>
