<svg width="65" height="65" viewBox="0 0 65 65" fill="none" xmlns="http://www.w3.org/2000/svg">
<path d="M11.9885 55.252L7.42432 4.0625H57.5759L53.0056 55.2439L32.4696 60.9375L11.9885 55.252Z" fill="#E44F26"/>
<path d="M32.5 56.5866L49.0953 51.9858L52.9994 8.2489H32.5V56.5866Z" fill="#F1662A"/>
<path d="M32.5 27.233H24.1922L23.6194 20.8041H32.5V14.5255H16.7578L16.9081 16.2114L18.4498 33.5116H32.5V27.233ZM32.5 43.5378L32.4716 43.5459L25.48 41.6589L25.0331 36.6519H18.7302L19.6097 46.5075L32.4716 50.0784L32.5 50.0703V43.5378Z" fill="#EBEBEB"/>
<path d="M32.4775 27.233V33.5116H40.2085L39.4813 41.6549L32.4775 43.5439V50.0764L45.3496 46.5075L45.443 45.4472L46.9177 28.9189L47.0721 27.233H32.4775ZM32.4775 14.5255V20.8041H47.6429L47.7688 19.3944L48.0552 16.2114L48.2055 14.5255H32.4775Z" fill="white"/>
</svg>
