<svg width="65" height="65" viewBox="0 0 65 65" fill="none" xmlns="http://www.w3.org/2000/svg">
<path d="M4.0625 4.0625H60.9375V60.9375H4.0625V4.0625Z" fill="#F5DE19"/>
<path d="M42.2683 48.4961C42.7529 49.4804 43.5058 50.3078 44.4402 50.8828C45.3746 51.4578 46.4524 51.7571 47.5495 51.7461C49.7636 51.7461 51.1794 50.6391 51.1794 49.1055C51.1794 47.2773 49.725 46.6233 47.2875 45.5569L45.9509 44.9841C42.0916 43.3408 39.5322 41.2831 39.5322 36.9322C39.5322 32.9245 42.5791 29.8716 47.3586 29.8716C48.9058 29.7598 50.4517 30.1061 51.8034 30.8672C53.1551 31.6283 54.2527 32.7705 54.9595 34.1514L50.7812 36.8225C50.5091 36.1378 50.0352 35.552 49.4225 35.1428C48.8098 34.7336 48.0872 34.5203 47.3505 34.5313C47.029 34.4991 46.7044 34.5342 46.3973 34.6344C46.0902 34.7346 45.8074 34.8977 45.5668 35.1132C45.3262 35.3288 45.1332 35.5921 45 35.8864C44.8667 36.1807 44.7963 36.4995 44.7931 36.8225C44.7931 38.4252 45.7864 39.0752 48.0797 40.0725L49.4162 40.6453C53.9581 42.5933 56.5256 44.5778 56.5256 49.0405C56.5256 53.8525 52.7455 56.4891 47.6694 56.4891C45.6915 56.6151 43.7195 56.166 41.9912 55.1961C40.263 54.2262 38.8523 52.7768 37.9295 51.023L42.2683 48.4961ZM23.3878 48.9592C24.2267 50.4481 24.9905 51.7075 26.8267 51.7075C28.5817 51.7075 29.6908 51.0209 29.6908 48.3498V30.1763H35.035V48.4209C35.035 53.9541 31.785 56.4728 27.0542 56.4728C25.382 56.5642 23.7212 56.1475 22.2903 55.2774C20.8593 54.4073 19.7252 53.1246 19.0369 51.5978L23.3878 48.9592Z" fill="black"/>
</svg>
