<svg width="65" height="65" viewBox="0 0 65 65" fill="none" xmlns="http://www.w3.org/2000/svg">
<path d="M18.2812 27.8281C20.1771 20.2448 24.9167 16.4531 32.5 16.4531C43.875 16.4531 45.2969 24.9844 50.9844 26.4062C54.776 27.3542 58.0938 25.9323 60.9375 22.1406C59.0417 29.724 54.3021 33.5156 46.7188 33.5156C35.3438 33.5156 33.9219 24.9844 28.2344 23.5625C24.4427 22.6146 21.125 24.0365 18.2812 27.8281ZM4.0625 44.8906C5.95833 37.3073 10.6979 33.5156 18.2812 33.5156C29.6562 33.5156 31.0781 42.0469 36.7656 43.4687C40.5573 44.4167 43.875 42.9948 46.7188 39.2031C44.8229 46.7865 40.0833 50.5781 32.5 50.5781C21.125 50.5781 19.7031 42.0469 14.0156 40.625C10.224 39.6771 6.90625 41.099 4.0625 44.8906Z" fill="#44A8B3"/>
</svg>
