<svg width="65" height="65" viewBox="0 0 65 65" fill="none" xmlns="http://www.w3.org/2000/svg">
<g clip-path="url(#clip0_114_274)">
<path d="M58.9265 10.2172L47.2143 4.57844C46.5528 4.25953 45.8086 4.15429 45.0847 4.27731C44.3608 4.40033 43.6931 4.74551 43.1741 5.265L4.83427 40.2188C4.36909 40.6409 4.09064 41.2304 4.06016 41.8578C4.02969 42.4852 4.24969 43.099 4.67177 43.5642C4.72255 43.6191 4.77333 43.6719 4.82817 43.7206L7.95833 46.5644C8.36735 46.9366 8.89383 47.1539 9.44635 47.1784C9.99887 47.2029 10.5425 47.0331 10.9829 46.6984L57.1633 11.6797C57.5121 11.415 57.9279 11.2529 58.3638 11.2117C58.7998 11.1705 59.2385 11.2518 59.6308 11.4464C60.023 11.6411 60.3531 11.9413 60.584 12.3134C60.8148 12.6855 60.9372 13.1146 60.9374 13.5525V13.4164C60.9374 12.7479 60.7486 12.093 60.3929 11.5271C60.0371 10.9611 59.5288 10.5071 58.9265 10.2172Z" fill="#0065A9"/>
<path d="M58.9265 54.7828L47.2143 60.4236C46.5526 60.7416 45.8086 60.8464 45.0849 60.7234C44.3612 60.6004 43.6935 60.2557 43.1741 59.737L4.83427 24.7813C4.36909 24.3592 4.09064 23.7696 4.06016 23.1422C4.02969 22.5148 4.24969 21.901 4.67177 21.4358C4.72255 21.3809 4.77333 21.3281 4.82817 21.2794L7.95833 18.4356C8.36776 18.0618 8.89545 17.8436 9.44933 17.8191C10.0032 17.7946 10.5481 17.9654 10.989 18.3016L57.1633 53.3203C57.5121 53.585 57.9279 53.7471 58.3638 53.7883C58.7998 53.8295 59.2385 53.7482 59.6308 53.5536C60.023 53.3589 60.3531 53.0587 60.584 52.6866C60.8148 52.3145 60.9372 51.8854 60.9374 51.4475V51.5938C60.9352 52.2605 60.7455 52.9131 60.3898 53.477C60.0342 54.041 59.5271 54.4935 58.9265 54.7828Z" fill="#007ACC"/>
<path d="M47.2143 60.4236C46.5527 60.7416 45.8086 60.8464 45.0849 60.7234C44.3612 60.6004 43.6936 60.2557 43.1741 59.737C43.4658 60.0249 43.836 60.2203 44.2383 60.2987C44.6405 60.3772 45.057 60.3351 45.4355 60.1779C45.814 60.0206 46.1376 59.7552 46.3659 59.4148C46.5941 59.0744 46.7169 58.6742 46.7187 58.2644V6.73563C46.719 6.32388 46.5971 5.92128 46.3685 5.57885C46.1398 5.23642 45.8147 4.96955 45.4342 4.81207C45.0538 4.65458 44.6351 4.61355 44.2314 4.69418C43.8276 4.77482 43.4568 4.97348 43.166 5.26501C43.6851 4.7457 44.3526 4.4005 45.0764 4.27714C45.8002 4.15378 46.5444 4.25836 47.2062 4.57641L58.9163 10.207C59.5206 10.4955 60.031 10.9489 60.3886 11.515C60.7462 12.081 60.9365 12.7367 60.9374 13.4063V51.5938C60.9376 52.2628 60.7487 52.9183 60.3926 53.4847C60.0364 54.051 59.5275 54.5053 58.9245 54.795L47.2143 60.4236Z" fill="#1F9CF0"/>
</g>
<defs>
<clipPath id="clip0_114_274">
<rect width="65" height="65" fill="white"/>
</clipPath>
</defs>
</svg>
